# xmcd
#
# Track frame offsets:
#	150
#	15869
#	30335
#	47785
#	63816
#	79467
#	97789
#	113610
#	127523
#	143834
#	158779
#	175225
#	191002
#	206523
#	234012
#
# Disc length: 4440
#
# Revision: 2
# Processed by: cddbd v1.5.1PL0 Copyright (c) Steve Scherf et al.
# Submitted via: audiograbber 1.83.01
# Normalized: r1:DSETVAR1
#
DISCID=a711560f
DTITLE=Various Artist - Goldene Schlagerparade 1/2003
DYEAR=2003
DGENRE=Schlager
TTITLE0=Golden Sunshine - Wenn du wüsstest
TTITLE1=Dagmar - Jolene
TTITLE2=Spider Murphy Gang - Frauen wollen immer nur das eine
TTITLE3=Simone - Der Himmel weint für mich
TTITLE4=Trenkwalder - Deine Sommersprossen
TTITLE5=Lena Valaitis - Und wenn ich meine Augen schließe
TTITLE6=Udo Jürgens - Es lebe das Laster
TTITLE7=Rosanna Rocci - Mit dir zusammen sein
TTITLE8=Roger Whittaker - Wunderbare Jahre liegen vor uns
TTITLE9=Gaby Baginsky - So wie mich Deine Hand berüht
TTITLE10=André Stade - Lena
TTITLE11=Nicole - Ich lieb dich so sehr
TTITLE12=Andreas Rauch - Hey mi amor
TTITLE13=Claudia Jung - Wenn es Morgen nicht mehr gibt
TTITLE14=Daten CD - Daten CD
EXTD=
EXTT0=
EXTT1=
EXTT2=
EXTT3=
EXTT4=
EXTT5=
EXTT6=
EXTT7=
EXTT8=
EXTT9=
EXTT10=
EXTT11=
EXTT12=
EXTT13=
EXTT14=
PLAYORDER=
